HIERARCHY
ROOT Pelvis
{
	OFFSET 0.000000 0.000000 0.000000
	CHANNELS 6 Xposition Yposition Zposition Zrotation Yrotation Xrotation 
	JOINT Left_hip
	{
		OFFSET 0.068973 -0.091024 -0.007589
		CHANNELS 3 Zrotation Yrotation Xrotation
		JOINT Left_knee
		{
			OFFSET 0.036482 -0.391037 -0.003979
			CHANNELS 3 Zrotation Yrotation Xrotation
			JOINT Left_ankle
			{
				OFFSET -0.012239 -0.415469 -0.043440
				CHANNELS 3 Zrotation Yrotation Xrotation
				JOINT Left_foot
				{
					OFFSET 0.023806 -0.058558 0.118702
					CHANNELS 3 Zrotation Yrotation Xrotation
					End Site
					{
						OFFSET 0.000000 0.000000 0.000000
					}
				}
			}
		}
	}
	JOINT Right_hip
	{
		OFFSET -0.066552 -0.090468 -0.003847
		CHANNELS 3 Zrotation Yrotation Xrotation
		JOINT Right_knee
		{
			OFFSET -0.042435 -0.398340 -0.006400
			CHANNELS 3 Zrotation Yrotation Xrotation
			JOINT Right_ankle
			{
				OFFSET 0.014931 -0.415421 -0.041327
				CHANNELS 3 Zrotation Yrotation Xrotation
				JOINT Right_foot
				{
					OFFSET -0.021472 -0.049410 0.121889
					CHANNELS 3 Zrotation Yrotation Xrotation
					End Site
					{
						OFFSET 0.000000 0.000000 0.000000
					}
				}
			}
		}
	}
	JOINT Spine1
	{
		OFFSET -0.002904 0.105700 -0.022855
		CHANNELS 3 Zrotation Yrotation Xrotation
		JOINT Spine2
		{
			OFFSET 0.004179 0.132554 -0.002501
			CHANNELS 3 Zrotation Yrotation Xrotation
			JOINT Spine3
			{
				OFFSET 0.001987 0.049603 0.025988
				CHANNELS 3 Zrotation Yrotation Xrotation
				JOINT Neck
				{
					OFFSET -0.003935 0.211336 -0.045638
					CHANNELS 3 Zrotation Yrotation Xrotation
					JOINT Head
					{
						OFFSET 0.003906 0.065991 0.051018
						CHANNELS 3 Zrotation Yrotation Xrotation
						End Site
						{
							OFFSET 0.000000 0.000000 0.000000
						}
					}
				}
				JOINT Left_collar
				{
					OFFSET 0.072882 0.117751 -0.036270
					CHANNELS 3 Zrotation Yrotation Xrotation
					JOINT Left_shoulder
					{
						OFFSET 0.082118 0.032630 -0.005771
						CHANNELS 3 Zrotation Yrotation Xrotation
						JOINT Left_elbow
						{
							OFFSET 0.263305 -0.015144 -0.028095
							CHANNELS 3 Zrotation Yrotation Xrotation
							JOINT Left_wrist
							{
								OFFSET 0.250741 0.010115 -0.000759
								CHANNELS 3 Zrotation Yrotation Xrotation
								JOINT Left_palm
								{
									OFFSET 0.080683 -0.009989 -0.013613
									CHANNELS 3 Zrotation Yrotation Xrotation
									End Site
									{
										OFFSET 0.000000 0.000000 0.000000
									}
								}
							}
						}
					}
				}
				JOINT Right_collar
				{
					OFFSET -0.074811 0.116132 -0.040385
					CHANNELS 3 Zrotation Yrotation Xrotation
					JOINT Right_shoulder
					{
						OFFSET -0.085089 0.032943 -0.007484
						CHANNELS 3 Zrotation Yrotation Xrotation
						JOINT Right_elbow
						{
							OFFSET -0.254763 -0.014219 -0.020321
							CHANNELS 3 Zrotation Yrotation Xrotation
							JOINT Right_wrist
							{
								OFFSET -0.256597 0.009233 -0.005063
								CHANNELS 3 Zrotation Yrotation Xrotation
								JOINT Right_palm
								{
									OFFSET -0.080528 -0.007219 -0.010379
									CHANNELS 3 Zrotation Yrotation Xrotation
									End Site
									{
										OFFSET 0.000000 0.000000 0.000000
									}
								}
							}
						}
					}
				}
			}
		}
	}
}
MOTION
Frames: 12
Frame Time: 0.100000
0.000000 0.000000 0.000000 -172.766860 -52.539268 -19.160698 7.263317 13.117478 19.814966 -4.538032 6.519681 -11.509100 -1.389209 13.523418 1.368834 4.215408 6.359606 -4.090676 -0.523472 -2.386473 4.102395 0.843164 4.305838 -0.446993 8.088354 -3.403708 6.039195 -6.190724 -1.420631 0.277048 -0.165539 -0.803914 5.071423 0.304170 -4.090012 11.832213 0.216082 -1.762864 -0.129709 0.715705 5.423367 14.297892 1.789573 6.285502 7.075263 -26.228524 -9.480788 8.803281 -48.517974 -4.971936 9.905913 0.802500 -20.927585 15.312549 2.390846 -7.755437 23.875655 -14.566867 -6.286272 -23.264391 22.466156 8.259660 8.468996 55.298475 0.667653 14.379654 -9.842957 31.162597 3.839191 0.829514 1.449161 6.152059 14.152939 9.125571 -13.253909 
-0.004902 0.001590 -0.007983 -172.386316 -53.563811 -19.202098 7.285218 13.425009 18.971000 -4.523266 6.629158 -11.068659 -0.998449 13.443390 1.323827 3.479021 6.672826 -3.480591 0.314577 -3.709005 3.522017 0.930776 1.642410 -1.098519 6.884875 -4.414693 6.081902 -4.917734 -2.318612 0.629836 -0.533243 -0.492945 7.450610 -0.193901 -4.112926 11.922428 0.389603 -1.784697 -0.333062 0.260530 6.007612 13.902208 2.296544 7.312072 4.750940 -26.356495 -9.908812 9.367202 -47.840616 -4.569759 9.010810 0.669306 -19.570900 15.212672 2.071979 -7.640453 23.102473 -13.675455 -6.042194 -22.919494 22.244918 8.660841 8.992509 56.422473 -0.006331 14.203444 -9.905719 31.433103 4.253455 0.552264 1.849945 6.049776 13.875716 9.112968 -12.802619 
-0.007299 0.003004 -0.018027 -171.826312 -54.040051 -19.399909 7.320269 13.392064 17.950323 -4.509021 6.568212 -10.159686 -0.766183 13.209520 1.210429 2.948106 7.630263 -3.129357 0.952849 -3.455884 2.248307 0.648190 0.957232 0.000924 6.397307 -4.721313 5.826273 -4.707686 -2.763677 0.436347 -0.877088 -0.401384 10.038817 -0.827663 -4.230973 13.519566 0.341339 -1.827210 -0.711908 -0.530809 7.039410 13.426966 2.638913 8.467255 0.793148 -26.694859 -12.030375 10.299987 -46.593419 -4.978733 8.417469 0.875727 -19.456799 14.658527 1.790980 -7.468374 23.758271 -12.952267 -5.944279 -23.098005 21.771965 10.176449 9.784217 57.602376 -0.819398 13.948604 -10.254632 31.996925 3.805134 0.623610 1.838265 5.745493 13.961998 9.277104 -12.971881 
-0.003497 0.004067 -0.026109 -171.759340 -53.267803 -18.587675 7.544847 13.367388 16.959850 -4.564588 6.262847 -10.366794 -1.032572 12.793268 1.603155 2.848491 8.090654 -2.927658 1.239677 -2.910847 0.256703 0.746100 0.605991 1.957973 6.056325 -4.594458 5.359762 -4.436420 -3.297368 0.424660 -0.881336 -0.763568 12.097096 -1.295561 -4.614506 15.201777 0.323781 -2.052274 -1.108308 -1.922695 8.072639 13.049877 2.716437 9.698652 -3.505963 -26.746071 -14.453233 11.119240 -45.235219 -5.874650 8.188819 1.187347 -21.242173 13.844669 1.776483 -7.662862 24.153749 -12.309870 -5.742772 -22.913501 21.081502 11.495683 10.428559 57.849168 -1.871812 13.582091 -9.911961 33.006034 4.279686 1.400236 1.889167 6.183240 13.616198 9.335736 -13.056637 
0.009440 0.005986 -0.031719 -171.366234 -51.191258 -17.859486 7.641876 12.897290 16.062993 -4.578519 5.517796 -10.474928 -1.726436 12.452524 1.849862 3.166532 7.779344 -2.482599 1.089997 -2.999168 -0.188655 0.888518 -0.510015 2.215713 5.395588 -4.365564 4.158424 -3.791315 -4.423764 0.909359 -0.700272 -0.936765 13.825233 -1.567082 -5.053333 16.469418 0.549875 -2.152167 -1.611425 -3.604509 8.287745 12.319910 2.900396 10.177892 -6.986635 -26.341099 -16.363603 11.834988 -44.090444 -6.559945 8.277317 3.204080 -26.197927 11.968737 1.816509 -8.736582 22.277897 -11.327753 -4.788246 -21.760184 20.545002 13.028742 11.178824 57.777347 -2.500369 12.676408 -9.749828 32.085573 3.468213 3.026796 2.473346 4.703587 12.205289 8.542792 -12.186672 
0.036550 0.007393 -0.032499 -171.320019 -48.471804 -17.142817 8.241042 11.915244 15.962717 -4.271467 4.811087 -10.339310 -2.692589 12.511648 1.975879 3.752417 6.566480 -2.141852 0.901198 -4.148759 1.746955 1.661514 -1.973935 0.441938 4.318601 -3.915450 2.774755 -2.638977 -5.670826 1.451297 0.159379 -0.884312 13.749354 -1.599441 -4.967319 17.198352 1.144037 -1.749350 -1.774452 -5.294081 6.847563 12.183271 3.465315 10.605106 -8.507057 -25.986552 -16.365622 11.979021 -45.708439 -6.680031 8.275419 9.250268 -32.398646 4.613111 4.959652 -9.323928 15.577944 -10.022724 -3.767836 -18.437756 20.298374 14.510719 12.221732 56.683026 -1.753314 11.928384 -8.011824 28.845030 4.324302 3.476648 2.643989 5.192582 9.917277 7.484038 -10.465911 
0.076780 0.008515 -0.028496 -171.470085 -44.647552 -17.634367 9.168545 10.359531 14.848027 -3.055182 3.848430 -4.772277 -3.503198 12.778476 0.620977 4.548614 5.258941 -2.403269 0.888453 -5.895419 6.204982 2.427173 -2.569887 -1.621742 3.461258 -4.640305 0.983955 -2.312646 -6.003952 1.364618 0.746354 -0.129375 12.378596 -0.966706 -5.097962 17.028659 2.018825 -1.273851 -1.368713 -5.514825 4.958141 12.094552 4.412040 10.093725 -8.148360 -24.969026 -15.609580 11.975246 -48.542868 -5.792608 9.331297 11.540419 -36.993392 3.559894 8.664052 -9.166314 10.745746 -9.163561 -3.579618 -15.946270 19.810247 15.614286 12.530641 55.025847 0.046262 11.556714 -5.248134 24.563511 8.252268 1.946537 1.830513 9.620727 8.517211 7.263774 -9.802817 
0.119531 0.011782 -0.018635 -171.192811 -40.547571 -20.502621 9.978413 8.133787 10.399979 -1.722999 3.112511 11.587952 -3.603492 13.007107 -2.040090 4.515619 4.880213 -2.440090 0.150072 -7.813872 12.838337 3.137330 -2.159333 -2.277856 2.546973 -6.072121 -1.496377 -2.108125 -5.410465 0.648743 0.353170 1.891602 11.009043 0.182708 -6.039190 17.157454 2.679938 -1.108953 -1.117228 -4.905786 4.170607 11.687378 4.338754 8.236908 -7.957731 -24.866171 -15.080339 12.814188 -48.757374 -3.768175 9.418654 8.124127 -34.841449 7.402523 5.887329 -8.276759 6.515337 -8.058923 -3.533113 -14.317223 20.561047 16.273406 12.352749 51.010005 2.921648 10.439666 -4.091586 22.031420 9.965416 2.182638 0.818210 9.621012 8.440083 7.428741 -8.821618 
0.157619 0.010745 0.003043 -171.274986 -38.980150 -25.453926 9.658818 5.744791 3.508312 -0.596042 4.990425 34.875914 -1.602193 15.417233 -2.860529 3.003223 7.241128 -4.010703 -0.100947 -9.350102 23.604068 3.051084 -1.020405 -6.656416 -0.915512 -8.757792 -0.022796 1.737052 -3.332035 0.169112 1.705054 4.248920 13.097690 -0.042171 -5.165914 14.977274 2.530310 -0.734893 1.394263 -3.374101 2.130319 8.479351 1.817189 7.744006 -9.082955 -23.943037 -11.560138 10.276690 -48.614572 -2.247121 7.227783 2.404442 -29.584672 17.732563 6.463624 -2.077670 5.606464 -7.367450 -4.849641 -13.634311 20.962275 16.302742 9.829129 46.814484 6.622548 8.220313 -2.389825 21.043730 11.434595 -7.091904 1.982505 11.084784 11.867546 8.366951 -9.934662 
0.190492 0.006999 0.030573 -168.594286 -39.392246 -24.672091 5.821917 3.396506 -7.903413 -6.099339 4.846547 38.920988 -1.195393 8.702854 -3.110635 1.110315 7.817511 -5.213075 -1.709144 -9.816795 23.244109 2.308465 0.158694 -6.159708 0.886974 -9.079817 -1.081558 -1.895245 -1.499051 -1.533882 1.667136 6.592043 10.816755 -0.759112 -3.719474 12.399292 1.547033 1.004149 0.909612 -3.892189 2.137557 5.562125 0.697042 7.804216 -11.067675 -23.897599 -8.214614 8.782307 -49.581902 1.351655 6.881026 1.562909 -24.244879 17.599368 7.741215 -1.549797 5.185228 -9.583618 -5.643961 -14.556495 20.090144 15.567220 8.971303 45.026438 9.526939 7.714585 -3.522415 24.369298 9.426527 -8.743455 2.547302 10.107761 13.190056 9.006462 -9.451287 
0.219604 0.005364 0.067680 -167.466190 -40.111204 -22.896375 2.594878 2.917646 -13.141016 -4.266305 9.809305 21.583920 -1.888175 10.262047 2.709685 5.096518 7.813695 -4.535968 -2.199383 -9.490058 23.499088 1.447549 0.596995 -6.076577 1.857247 -9.527517 -2.368247 -3.621803 -1.005039 -1.925497 2.534872 7.560427 9.474786 -2.016825 -2.681946 10.838645 0.810852 2.183438 0.446321 -5.313752 2.516784 1.758174 -0.734680 7.648967 -13.738741 -24.083707 -6.502574 7.627129 -50.633173 4.889589 7.495887 0.130595 -20.440201 17.794015 5.749302 -1.680010 7.114071 -10.462811 -5.904171 -17.762234 18.165534 15.915405 8.435877 43.887871 12.084392 8.291864 -3.920063 29.155334 8.373724 -8.920526 4.024890 9.661968 13.472897 8.690359 -11.029906 
0.254666 0.009682 0.117926 -167.916749 -41.338855 -21.045273 -0.041879 5.043164 -9.838994 -5.125815 12.191758 -5.877917 -3.425011 11.078835 5.675433 9.145274 7.501538 -2.079568 -2.411900 -9.431454 25.930179 1.013874 0.703585 -5.879139 3.308882 -8.892953 -3.845091 -3.920890 -0.632546 -2.010132 3.325181 7.372295 7.556813 -2.671849 -2.215411 10.704343 0.579034 2.695105 -0.036125 -5.603347 4.101614 -0.967284 -2.679402 7.420819 -15.415544 -24.429982 -5.129321 6.865172 -52.798254 7.822737 7.789020 -0.259455 -18.792842 19.109849 2.238862 -2.553749 9.914943 -9.940098 -5.581362 -20.784669 16.871718 15.846732 7.884125 44.146808 14.146882 9.160589 -3.590026 32.518979 9.471046 -7.177950 5.550730 10.152949 12.842468 7.847542 -11.796136 
